# xmcd CD database file
#
# Track frame offsets:
#	150
#	9888
#	27564
#	55313
#	85813
#	124900
#	142300
#	179575
#
# Disc length: 2768 seconds
#
# Revision: 2
# Processed by: cddbd v1.5.2PL0 Copyright (c) Steve Scherf et al.
# Submitted via: CDex 1.70beta2
#
DISCID=6f0ace08
DTITLE=Omer Klein and Haggai Cohen Milo - Duet
DYEAR=2006
DGENRE=Jazz
TTITLE0=Introduction
TTITLE1=The Ravens 
TTITLE2=Song #1
TTITLE3=Stav
TTITLE4=High School Song
TTITLE5=Dvash
TTITLE6=Desert Song
TTITLE7=The End
EXTD=YEAR: 2006
EXTT0=
EXTT1=
EXTT2=
EXTT3=
EXTT4=
EXTT5=
EXTT6=
EXTT7=
PLAYORDER=
